# Blender v2.74 (sub 0) OBJ File: ''
# www.blender.org
mtllib space.mtl
o Cone
v 0.000000 -4.485846 0.000000
v 0.000000 -0.517973 -4.325625
v 2.162812 -0.517973 -3.746042
v 3.746042 -0.517973 -2.162812
v 4.325625 -0.517973 -0.000000
v 3.746042 -0.517973 2.162812
v 2.162812 -0.517973 3.746042
v 0.000000 -0.517973 4.325625
v -2.162812 -0.517973 3.746042
v -3.746042 -0.517973 2.162812
v -4.325625 -0.517973 -0.000000
v -3.746042 -0.517973 -2.162812
v -2.162812 -0.517973 -3.746042
v 0.000000 0.810957 -0.000000
v 0.000000 0.696873 -4.325625
v 2.162812 0.696873 -3.746042
v 3.746042 0.696873 -2.162812
v 4.325625 0.696873 -0.000000
v 3.746042 0.696873 2.162812
v 2.162812 0.696873 3.746042
v 0.000000 0.696873 4.325625
v -2.162812 0.696873 3.746042
v -3.746042 0.696873 2.162812
v -4.325625 0.696873 -0.000000
v -3.746042 0.696873 -2.162812
v -2.162812 0.696873 -3.746042
v 0.833333 -1.798801 -3.110000
v 2.276667 -1.798801 -2.276667
v 3.110000 -1.798801 -0.833333
v 3.110000 -1.798801 0.833333
v 2.276667 -1.798801 2.276667
v 0.833333 -1.798801 3.110000
v -0.833333 -1.798801 3.110000
v -2.276667 -1.798801 2.276667
v -3.110000 -1.798801 0.833333
v -3.110000 -1.798801 -0.833333
v -2.276667 -1.798801 -2.276667
v -0.833333 -1.798801 -3.110000
v 0.863593 0.810957 -3.222930
v 2.359337 0.810957 -2.359337
v 3.222930 0.810957 -0.863593
v 3.222930 0.810957 0.863593
v 2.359337 0.810957 2.359337
v 0.863593 0.810957 3.222930
v -0.863593 0.810957 3.222930
v -2.359337 0.810957 2.359337
v -3.222930 0.810957 0.863593
v -3.222930 0.810957 -0.863593
v -2.359337 0.810957 -2.359337
v -0.863593 0.810957 -3.222930
v 1.250000 0.354619 -4.665000
v 3.415000 0.354619 -3.415000
v 4.665000 0.354619 -1.250000
v 4.665000 0.354619 1.250000
v 3.415000 0.354619 3.415000
v 1.250000 0.354619 4.665000
v -1.250000 0.354619 4.665000
v -3.415000 0.354619 3.415000
v -4.665000 0.354619 1.250000
v -4.665000 0.354619 -1.250000
v -3.415000 0.354619 -3.415000
v -1.250000 0.354619 -4.665000
v 0.000000 -2.223071 -2.805000
v 1.145833 -0.411906 -4.276250
v 1.402500 -2.223071 -2.429167
v 3.130417 -0.411906 -3.130417
v 2.429167 -2.223071 -1.402500
v 4.276250 -0.411906 -1.145833
v 2.805000 -2.223071 -0.000000
v 4.276250 -0.411906 1.145833
v 2.429167 -2.223071 1.402500
v 3.130417 -0.411906 3.130417
v 1.402500 -2.223071 2.429167
v 1.145833 -0.411906 4.276250
v 0.000000 -2.223071 2.805000
v -1.145833 -0.411906 4.276250
v -1.402500 -2.223071 2.429167
v -3.130417 -0.411906 3.130417
v -2.429167 -2.223071 1.402500
v -4.276250 -0.411906 1.145833
v -2.805000 -2.223071 -0.000000
v -4.276250 -0.411906 -1.145833
v -2.429167 -2.223071 -1.402500
v -3.130417 -0.411906 -3.130417
v -1.402500 -2.223071 -2.429167
v -1.145833 -0.411906 -4.276250
v 1.145833 0.696873 -4.276250
v -0.000000 0.810957 -2.906855
v 1.453427 0.810957 -2.517374
v 3.130417 0.696873 -3.130417
v 2.517374 0.810957 -1.453427
v 4.276250 0.696873 -1.145833
v 2.906855 0.810957 -0.000000
v 4.276250 0.696873 1.145833
v 2.517374 0.810957 1.453427
v 3.130417 0.696873 3.130417
v 1.453427 0.810957 2.517374
v 1.145833 0.696873 4.276250
v -0.000000 0.810957 2.906855
v -1.145833 0.696873 4.276250
v -1.453427 0.810957 2.517374
v -3.130417 0.696873 3.130417
v -2.517374 0.810957 1.453427
v -4.276250 0.696873 1.145833
v -2.906855 0.810957 -0.000000
v -4.276250 0.696873 -1.145833
v -2.517374 0.810957 -1.453427
v -3.130417 0.696873 -3.130417
v -1.453427 0.810957 -2.517374
v -1.145833 0.696873 -4.276250
v 0.000000 0.354619 -4.832500
v 2.416250 0.354619 -4.185000
v 4.185000 0.354619 -2.416250
v 4.832500 0.354619 -0.000000
v 4.185000 0.354619 2.416250
v 2.416250 0.354619 4.185000
v 0.000000 0.354619 4.832500
v -2.416250 0.354619 4.185000
v -4.185000 0.354619 2.416250
v -4.832500 0.354619 -0.000000
v -4.185000 0.354619 -2.416250
v -2.416250 0.354619 -4.185000
vt 0.583333 0.189000
vt 0.500000 0.219500
vt 0.500000 0.067437
vt 0.614583 0.072375
vt 0.716281 0.125396
vt 0.640250 0.257083
vt 0.500000 0.500000
vt 0.727667 0.272333
vt 0.813042 0.186958
vt 0.874604 0.283719
vt 0.742917 0.359750
vt 0.811000 0.416667
vt 0.927625 0.385417
vt 0.932562 0.500000
vt 0.780500 0.500000
vt 0.811000 0.583333
vt 0.927625 0.614583
vt 0.874604 0.716281
vt 0.742917 0.640250
vt 0.727667 0.727667
vt 0.813042 0.813042
vt 0.716281 0.874604
vt 0.640250 0.742917
vt 0.583333 0.811000
vt 0.614583 0.927625
vt 0.500000 0.932562
vt 0.500000 0.780500
vt 0.416667 0.811000
vt 0.385417 0.927625
vt 0.283719 0.874604
vt 0.359750 0.742917
vt 0.272333 0.727667
vt 0.186958 0.813042
vt 0.125396 0.716281
vt 0.257083 0.640250
vt 0.189000 0.583333
vt 0.072375 0.614583
vt 0.067437 0.500000
vt 0.219500 0.500000
vt 0.189000 0.416667
vt 0.072375 0.385417
vt 0.125396 0.283719
vt 0.257083 0.359750
vt 0.272333 0.272333
vt 0.186958 0.186958
vt 0.283719 0.125396
vt 0.359750 0.257083
vt 0.416667 0.189000
vt 0.385417 0.072375
vt 0.586359 0.177707
vt 0.500000 0.209315
vt 0.645343 0.248263
vt 0.735934 0.264066
vt 0.751737 0.354657
vt 0.822293 0.413641
vt 0.790685 0.500000
vt 0.822293 0.586359
vt 0.751737 0.645343
vt 0.735934 0.735934
vt 0.645343 0.751737
vt 0.586359 0.822293
vt 0.500000 0.790685
vt 0.413641 0.822293
vt 0.354657 0.751737
vt 0.264066 0.735934
vt 0.248263 0.645343
vt 0.177707 0.586359
vt 0.209315 0.500000
vt 0.177707 0.413641
vt 0.248263 0.354657
vt 0.264066 0.264066
vt 0.354657 0.248263
vt 0.413641 0.177707
vt 0.625000 0.033500
vt 0.500000 0.016750
vt 0.741625 0.081500
vt 0.841500 0.158500
vt 0.918500 0.258375
vt 0.966500 0.375000
vt 0.983250 0.500000
vt 0.966500 0.625000
vt 0.918500 0.741625
vt 0.841500 0.841500
vt 0.741625 0.918500
vt 0.625000 0.966500
vt 0.500000 0.983250
vt 0.375000 0.966500
vt 0.258375 0.918500
vt 0.158500 0.841500
vt 0.081500 0.741625
vt 0.033500 0.625000
vt 0.016750 0.500000
vt 0.033500 0.375000
vt 0.081500 0.258375
vt 0.158500 0.158500
vt 0.258375 0.081500
vt 0.375000 0.033500
vn 0.184900 -0.699800 -0.690000
vn -0.000000 -0.721900 -0.692000
vn 0.000000 -0.575900 -0.817500
vn 0.211200 -0.578000 -0.788300
vn 0.408800 -0.575900 -0.708000
vn 0.346000 -0.721900 -0.599300
vn 0.000000 -1.000000 0.000000
vn 0.505100 -0.699800 -0.505100
vn 0.577000 -0.578000 -0.577000
vn 0.708000 -0.575900 -0.408800
vn 0.599300 -0.721900 -0.346000
vn 0.690000 -0.699800 -0.184900
vn 0.788300 -0.578000 -0.211200
vn 0.817500 -0.575900 0.000000
vn 0.692000 -0.721900 0.000000
vn 0.690000 -0.699800 0.184900
vn 0.788300 -0.577900 0.211200
vn 0.708000 -0.575900 0.408800
vn 0.599300 -0.721900 0.346000
vn 0.505100 -0.699800 0.505100
vn 0.577000 -0.578000 0.577000
vn 0.408800 -0.575900 0.708000
vn 0.346000 -0.721900 0.599300
vn 0.184900 -0.699800 0.690000
vn 0.211200 -0.578000 0.788300
vn -0.000000 -0.575900 0.817500
vn -0.000000 -0.721900 0.692000
vn -0.184900 -0.699800 0.690000
vn -0.211200 -0.578000 0.788300
vn -0.408800 -0.575900 0.708000
vn -0.346000 -0.721900 0.599300
vn -0.505100 -0.699800 0.505100
vn -0.577000 -0.578000 0.577000
vn -0.708000 -0.575900 0.408800
vn -0.599300 -0.721900 0.346000
vn -0.690000 -0.699800 0.184900
vn -0.788300 -0.578000 0.211200
vn -0.817500 -0.575900 -0.000000
vn -0.692000 -0.721900 -0.000000
vn -0.690000 -0.699800 -0.184900
vn -0.788300 -0.577900 -0.211200
vn -0.708000 -0.575900 -0.408800
vn -0.599300 -0.721900 -0.346000
vn -0.505100 -0.699800 -0.505100
vn -0.577000 -0.578000 -0.577000
vn -0.408800 -0.575900 -0.708000
vn -0.346000 -0.721900 -0.599300
vn -0.184900 -0.699800 -0.690000
vn -0.211200 -0.578000 -0.788300
vn 0.013800 0.998600 -0.051600
vn 0.091300 0.935700 -0.340800
vn -0.000000 0.933600 -0.358400
vn 0.000000 0.999100 -0.043000
vn 0.000000 1.000000 0.000000
vn 0.021500 0.999100 -0.037200
vn 0.179200 0.933600 -0.310400
vn 0.037800 0.998600 -0.037800
vn 0.249500 0.935700 -0.249500
vn 0.037200 0.999100 -0.021500
vn 0.310400 0.933600 -0.179200
vn 0.051600 0.998600 -0.013800
vn 0.340800 0.935700 -0.091300
vn 0.043000 0.999100 -0.000000
vn 0.358400 0.933600 0.000000
vn 0.051600 0.998600 0.013800
vn 0.340800 0.935700 0.091300
vn 0.037200 0.999100 0.021500
vn 0.310400 0.933600 0.179200
vn 0.037800 0.998600 0.037800
vn 0.249500 0.935700 0.249500
vn 0.021500 0.999100 0.037200
vn 0.179200 0.933600 0.310400
vn 0.013800 0.998600 0.051600
vn 0.091300 0.935700 0.340800
vn 0.000000 0.999100 0.043000
vn -0.000000 0.933600 0.358400
vn -0.013800 0.998600 0.051600
vn -0.091300 0.935700 0.340800
vn -0.021500 0.999100 0.037200
vn -0.179200 0.933600 0.310400
vn -0.037800 0.998600 0.037800
vn -0.249500 0.935700 0.249500
vn -0.037200 0.999100 0.021500
vn -0.310400 0.933600 0.179200
vn -0.051600 0.998600 0.013800
vn -0.340800 0.935700 0.091300
vn -0.043000 0.999100 0.000000
vn -0.358400 0.933600 -0.000000
vn -0.051600 0.998600 -0.013800
vn -0.340800 0.935700 -0.091300
vn -0.037200 0.999100 -0.021500
vn -0.310400 0.933600 -0.179200
vn -0.037800 0.998600 -0.037800
vn -0.249500 0.935700 -0.249500
vn -0.021500 0.999100 -0.037200
vn -0.179200 0.933600 -0.310400
vn -0.013800 0.998600 -0.051600
vn -0.091300 0.935700 -0.340800
vn 0.253100 0.210200 -0.944300
vn -0.000000 0.208800 -0.978000
vn 0.489000 0.208800 -0.846900
vn 0.691300 0.210200 -0.691300
vn 0.846900 0.208800 -0.489000
vn 0.944300 0.210200 -0.253100
vn 0.978000 0.208800 0.000000
vn 0.944300 0.210200 0.253100
vn 0.846900 0.208800 0.489000
vn 0.691300 0.210200 0.691300
vn 0.489000 0.208800 0.846900
vn 0.253100 0.210200 0.944300
vn -0.000000 0.208800 0.978000
vn -0.253100 0.210200 0.944300
vn -0.489000 0.208800 0.846900
vn -0.691300 0.210200 0.691300
vn -0.846900 0.208800 0.489000
vn -0.944300 0.210200 0.253100
vn -0.978000 0.208800 -0.000000
vn -0.944300 0.210200 -0.253100
vn -0.846900 0.208800 -0.489000
vn -0.691300 0.210200 -0.691300
vn -0.489000 0.208800 -0.846900
vn -0.253100 0.210200 -0.944300
usemtl platformMaterial
s 1
f 27/1/1 63/2/2 2/3/3 64/4/4
f 27/1/1 64/4/4 3/5/5 65/6/6
f 27/1/1 65/6/6 1/7/7 63/2/2
f 28/8/8 65/6/6 3/5/5 66/9/9
f 28/8/8 66/9/9 4/10/10 67/11/11
f 28/8/8 67/11/11 1/7/7 65/6/6
f 29/12/12 67/11/11 4/10/10 68/13/13
f 29/12/12 68/13/13 5/14/14 69/15/15
f 29/12/12 69/15/15 1/7/7 67/11/11
f 30/16/16 69/15/15 5/14/14 70/17/17
f 30/16/16 70/17/17 6/18/18 71/19/19
f 30/16/16 71/19/19 1/7/7 69/15/15
f 31/20/20 71/19/19 6/18/18 72/21/21
f 31/20/20 72/21/21 7/22/22 73/23/23
f 31/20/20 73/23/23 1/7/7 71/19/19
f 32/24/24 73/23/23 7/22/22 74/25/25
f 32/24/24 74/25/25 8/26/26 75/27/27
f 32/24/24 75/27/27 1/7/7 73/23/23
f 33/28/28 75/27/27 8/26/26 76/29/29
f 33/28/28 76/29/29 9/30/30 77/31/31
f 33/28/28 77/31/31 1/7/7 75/27/27
f 34/32/32 77/31/31 9/30/30 78/33/33
f 34/32/32 78/33/33 10/34/34 79/35/35
f 34/32/32 79/35/35 1/7/7 77/31/31
f 35/36/36 79/35/35 10/34/34 80/37/37
f 35/36/36 80/37/37 11/38/38 81/39/39
f 35/36/36 81/39/39 1/7/7 79/35/35
f 36/40/40 81/39/39 11/38/38 82/41/41
f 36/40/40 82/41/41 12/42/42 83/43/43
f 36/40/40 83/43/43 1/7/7 81/39/39
f 37/44/44 83/43/43 12/42/42 84/45/45
f 37/44/44 84/45/45 13/46/46 85/47/47
f 37/44/44 85/47/47 1/7/7 83/43/43
f 38/48/48 85/47/47 13/46/46 86/49/49
f 38/48/48 86/49/49 2/3/3 63/2/2
f 38/48/48 63/2/2 1/7/7 85/47/47
f 39/50/50 87/4/51 15/3/52 88/51/53
f 39/50/50 88/51/53 14/7/54 89/52/55
f 39/50/50 89/52/55 16/5/56 87/4/51
f 40/53/57 90/9/58 16/5/56 89/52/55
f 40/53/57 89/52/55 14/7/54 91/54/59
f 40/53/57 91/54/59 17/10/60 90/9/58
f 41/55/61 92/13/62 17/10/60 91/54/59
f 41/55/61 91/54/59 14/7/54 93/56/63
f 41/55/61 93/56/63 18/14/64 92/13/62
f 42/57/65 94/17/66 18/14/64 93/56/63
f 42/57/65 93/56/63 14/7/54 95/58/67
f 42/57/65 95/58/67 19/18/68 94/17/66
f 43/59/69 96/21/70 19/18/68 95/58/67
f 43/59/69 95/58/67 14/7/54 97/60/71
f 43/59/69 97/60/71 20/22/72 96/21/70
f 44/61/73 98/25/74 20/22/72 97/60/71
f 44/61/73 97/60/71 14/7/54 99/62/75
f 44/61/73 99/62/75 21/26/76 98/25/74
f 45/63/77 100/29/78 21/26/76 99/62/75
f 45/63/77 99/62/75 14/7/54 101/64/79
f 45/63/77 101/64/79 22/30/80 100/29/78
f 46/65/81 102/33/82 22/30/80 101/64/79
f 46/65/81 101/64/79 14/7/54 103/66/83
f 46/65/81 103/66/83 23/34/84 102/33/82
f 47/67/85 104/37/86 23/34/84 103/66/83
f 47/67/85 103/66/83 14/7/54 105/68/87
f 47/67/85 105/68/87 24/38/88 104/37/86
f 48/69/89 106/41/90 24/38/88 105/68/87
f 48/69/89 105/68/87 14/7/54 107/70/91
f 48/69/89 107/70/91 25/42/92 106/41/90
f 49/71/93 108/45/94 25/42/92 107/70/91
f 49/71/93 107/70/91 14/7/54 109/72/95
f 49/71/93 109/72/95 26/46/96 108/45/94
f 50/73/97 110/49/98 26/46/96 109/72/95
f 50/73/97 109/72/95 14/7/54 88/51/53
f 50/73/97 88/51/53 15/3/52 110/49/98
f 51/74/99 64/4/4 2/3/3 111/75/100
f 51/74/99 111/75/100 15/3/52 87/4/51
f 51/74/99 87/4/51 16/5/56 112/76/101
f 51/74/99 112/76/101 3/5/5 64/4/4
f 52/77/102 66/9/9 3/5/5 112/76/101
f 52/77/102 112/76/101 16/5/56 90/9/58
f 52/77/102 90/9/58 17/10/60 113/78/103
f 52/77/102 113/78/103 4/10/10 66/9/9
f 53/79/104 68/13/13 4/10/10 113/78/103
f 53/79/104 113/78/103 17/10/60 92/13/62
f 53/79/104 92/13/62 18/14/64 114/80/105
f 53/79/104 114/80/105 5/14/14 68/13/13
f 54/81/106 70/17/17 5/14/14 114/80/105
f 54/81/106 114/80/105 18/14/64 94/17/66
f 54/81/106 94/17/66 19/18/68 115/82/107
f 54/81/106 115/82/107 6/18/18 70/17/17
f 55/83/108 72/21/21 6/18/18 115/82/107
f 55/83/108 115/82/107 19/18/68 96/21/70
f 55/83/108 96/21/70 20/22/72 116/84/109
f 55/83/108 116/84/109 7/22/22 72/21/21
f 56/85/110 74/25/25 7/22/22 116/84/109
f 56/85/110 116/84/109 20/22/72 98/25/74
f 56/85/110 98/25/74 21/26/76 117/86/111
f 56/85/110 117/86/111 8/26/26 74/25/25
f 57/87/112 76/29/29 8/26/26 117/86/111
f 57/87/112 117/86/111 21/26/76 100/29/78
f 57/87/112 100/29/78 22/30/80 118/88/113
f 57/87/112 118/88/113 9/30/30 76/29/29
f 58/89/114 78/33/33 9/30/30 118/88/113
f 58/89/114 118/88/113 22/30/80 102/33/82
f 58/89/114 102/33/82 23/34/84 119/90/115
f 58/89/114 119/90/115 10/34/34 78/33/33
f 59/91/116 80/37/37 10/34/34 119/90/115
f 59/91/116 119/90/115 23/34/84 104/37/86
f 59/91/116 104/37/86 24/38/88 120/92/117
f 59/91/116 120/92/117 11/38/38 80/37/37
f 60/93/118 82/41/41 11/38/38 120/92/117
f 60/93/118 120/92/117 24/38/88 106/41/90
f 60/93/118 106/41/90 25/42/92 121/94/119
f 60/93/118 121/94/119 12/42/42 82/41/41
f 61/95/120 84/45/45 12/42/42 121/94/119
f 61/95/120 121/94/119 25/42/92 108/45/94
f 61/95/120 108/45/94 26/46/96 122/96/121
f 61/95/120 122/96/121 13/46/46 84/45/45
f 62/97/122 86/49/49 13/46/46 122/96/121
f 62/97/122 122/96/121 26/46/96 110/49/98
f 62/97/122 110/49/98 15/3/52 111/75/100
f 62/97/122 111/75/100 2/3/3 86/49/49
